<?xml version="1.0" encoding="UTF-8" standalone="no"?>
<svg
   xmlns:dc="http://purl.org/dc/elements/1.1/"
   xmlns:cc="http://creativecommons.org/ns#"
   xmlns:rdf="http://www.w3.org/1999/02/22-rdf-syntax-ns#"
   xmlns:svg="http://www.w3.org/2000/svg"
   xmlns="http://www.w3.org/2000/svg"
   xmlns:sodipodi="http://sodipodi.sourceforge.net/DTD/sodipodi-0.dtd"
   xmlns:inkscape="http://www.inkscape.org/namespaces/inkscape"
   id="light"
   enable-background="new 0 0 24 24"
   height="512"
   viewBox="0 0 24 24"
   width="512"
   version="1.1"
   sodipodi:docname="cpf.svg"
   inkscape:version="1.0.1 (3bc2e813f5, 2020-09-07)">
  <metadata
     id="metadata31">
    <rdf:RDF>
      <cc:Work
         rdf:about="">
        <dc:format>image/svg+xml</dc:format>
        <dc:type
           rdf:resource="http://purl.org/dc/dcmitype/StillImage" />
      </cc:Work>
    </rdf:RDF>
  </metadata>
  <defs
     id="defs29" />
  <sodipodi:namedview
     pagecolor="#ffffff"
     bordercolor="#666666"
     borderopacity="1"
     objecttolerance="10"
     gridtolerance="10"
     guidetolerance="10"
     inkscape:pageopacity="0"
     inkscape:pageshadow="2"
     inkscape:window-width="1440"
     inkscape:window-height="837"
     id="namedview27"
     showgrid="false"
     inkscape:zoom="1.2265625"
     inkscape:cx="256"
     inkscape:cy="256"
     inkscape:window-x="-8"
     inkscape:window-y="-8"
     inkscape:window-maximized="1"
     inkscape:current-layer="light" />
  <g
     id="g4"
     style="fill:#5f6368;fill-opacity:1">
    <path
       d="m21.5 21h-19c-1.378 0-2.5-1.122-2.5-2.5v-13c0-1.378 1.122-2.5 2.5-2.5h19c1.378 0 2.5 1.122 2.5 2.5v13c0 1.378-1.122 2.5-2.5 2.5zm-19-17c-.827 0-1.5.673-1.5 1.5v13c0 .827.673 1.5 1.5 1.5h19c.827 0 1.5-.673 1.5-1.5v-13c0-.827-.673-1.5-1.5-1.5z"
       id="path2"
       style="fill:#5f6368;fill-opacity:1" />
  </g>
  <g
     id="g8">
    <path
       d="m7.5 12c-1.378 0-2.5-1.122-2.5-2.5s1.122-2.5 2.5-2.5 2.5 1.122 2.5 2.5-1.122 2.5-2.5 2.5zm0-4c-.827 0-1.5.673-1.5 1.5s.673 1.5 1.5 1.5 1.5-.673 1.5-1.5-.673-1.5-1.5-1.5z"
       id="path6"
       style="fill:#5f6368;fill-opacity:1" />
  </g>
  <g
     id="g12">
    <path
       d="m11.5 17c-.276 0-.5-.224-.5-.5v-1c0-.827-.673-1.5-1.5-1.5h-4c-.827 0-1.5.673-1.5 1.5v1c0 .276-.224.5-.5.5s-.5-.224-.5-.5v-1c0-1.378 1.122-2.5 2.5-2.5h4c1.378 0 2.5 1.122 2.5 2.5v1c0 .276-.224.5-.5.5z"
       id="path10"
       style="fill:#5f6368;fill-opacity:1" />
  </g>
  <g
     id="g16"
     style="fill:#5f6368;fill-opacity:0.4627451">
    <path
       d="m20.5 9h-6c-.276 0-.5-.224-.5-.5s.224-.5.5-.5h6c.276 0 .5.224.5.5s-.224.5-.5.5z"
       id="path14"
       style="fill:#5f6368;fill-opacity:1" />
  </g>
  <g
     id="g20"
     style="fill:#5f6368;fill-opacity:0.4627451">
    <path
       d="m20.5 13h-6c-.276 0-.5-.224-.5-.5s.224-.5.5-.5h6c.276 0 .5.224.5.5s-.224.5-.5.5z"
       id="path18"
       style="fill:#5f6368;fill-opacity:1" />
  </g>
  <g
     id="g24">
    <path
       d="m20.5 17h-6c-.276 0-.5-.224-.5-.5s.224-.5.5-.5h6c.276 0 .5.224.5.5s-.224.5-.5.5z"
       id="path22"
       style="fill:#5f6368;fill-opacity:1" />
  </g>
</svg>
