<?xml version="1.0" encoding="UTF-8" standalone="no"?>
<svg
   xmlns:dc="http://purl.org/dc/elements/1.1/"
   xmlns:cc="http://creativecommons.org/ns#"
   xmlns:rdf="http://www.w3.org/1999/02/22-rdf-syntax-ns#"
   xmlns:svg="http://www.w3.org/2000/svg"
   xmlns="http://www.w3.org/2000/svg"
   xmlns:sodipodi="http://sodipodi.sourceforge.net/DTD/sodipodi-0.dtd"
   xmlns:inkscape="http://www.inkscape.org/namespaces/inkscape"
   version="1.1"
   id="Capa_1"
   x="0px"
   y="0px"
   viewBox="0 0 512 512"
   style="enable-background:new 0 0 512 512;"
   xml:space="preserve"
   sodipodi:docname="salario.svg"
   inkscape:version="1.0.1 (3bc2e813f5, 2020-09-07)"><metadata
   id="metadata49"><rdf:RDF><cc:Work
       rdf:about=""><dc:format>image/svg+xml</dc:format><dc:type
         rdf:resource="http://purl.org/dc/dcmitype/StillImage" /></cc:Work></rdf:RDF></metadata><defs
   id="defs47" /><sodipodi:namedview
   pagecolor="#ffffff"
   bordercolor="#666666"
   borderopacity="1"
   objecttolerance="10"
   gridtolerance="10"
   guidetolerance="10"
   inkscape:pageopacity="0"
   inkscape:pageshadow="2"
   inkscape:window-width="1440"
   inkscape:window-height="837"
   id="namedview45"
   showgrid="false"
   inkscape:zoom="1.2265625"
   inkscape:cx="256"
   inkscape:cy="256"
   inkscape:window-x="-8"
   inkscape:window-y="-8"
   inkscape:window-maximized="1"
   inkscape:current-layer="Capa_1" />
<g
   id="g6">
	<g
   id="g4">
		<path
   d="M256,0C114.848,0,0,114.848,0,256s114.848,256,256,256s256-114.848,256-256S397.152,0,256,0z M256,480    C132.48,480,32,379.52,32,256S132.48,32,256,32s224,100.48,224,224S379.52,480,256,480z"
   id="path2"
   style="fill:#5f6368;fill-opacity:1" />
	</g>
</g>
<g
   id="g12"
   style="fill:#5f6368;fill-opacity:1">
	<g
   id="g10"
   style="fill:#5f6368;fill-opacity:1">
		<path
   d="M256,240c-26.016,0-48-14.656-48-32s21.984-32,48-32c14.72,0,28.352,4.608,37.376,12.608    c6.592,5.856,16.672,5.312,22.592-1.344c5.888-6.592,5.28-16.704-1.344-22.592c-11.2-9.952-26.24-16.672-42.624-19.328V128    c0-8.832-7.168-16-16-16c-8.832,0-16,7.168-16,16v17.28c-36.48,5.952-64,31.808-64,62.72c0,35.296,35.904,64,80,64    c26.016,0,48,14.656,48,32s-21.984,32-48,32c-14.72,0-28.352-4.608-37.376-12.608c-6.592-5.888-16.704-5.312-22.592,1.344    c-5.888,6.592-5.28,16.704,1.344,22.592c11.2,9.984,26.24,16.672,42.624,19.36V384c0,8.832,7.168,16,16,16c8.832,0,16-7.168,16-16    v-17.28c36.48-5.952,64-31.808,64-62.72C336,268.704,300.096,240,256,240z"
   id="path8"
   style="fill:#5f6368;fill-opacity:1" />
	</g>
</g>
<g
   id="g14">
</g>
<g
   id="g16">
</g>
<g
   id="g18">
</g>
<g
   id="g20">
</g>
<g
   id="g22">
</g>
<g
   id="g24">
</g>
<g
   id="g26">
</g>
<g
   id="g28">
</g>
<g
   id="g30">
</g>
<g
   id="g32">
</g>
<g
   id="g34">
</g>
<g
   id="g36">
</g>
<g
   id="g38">
</g>
<g
   id="g40">
</g>
<g
   id="g42">
</g>
</svg>
